# xmcd
#
# Track frame offsets:
# 150
# 18273
# 34242
# 51651
# 70566
# 82606
# 97532
# 110366
# 126628
# 144254
# 159781
# 174964
# 192021
# 207500
# 222413
# 236448
# 253736
# 263763
# 284047
# 300746
#
# Disc length: 4184 seconds
#
#
# Revision: 0
# Processed by: cddbd v1.5.1PL0 Copyright (c) Steve Scherf et al.
# Submitted via: FreeRIP 2.941 
#
DISCID=11105614
DTITLE=Sergio Reis (20 +) - As 20 mais
DYEAR=2005
DGENRE=Country
TTITLE0=Boaideiro Errante
TTITLE1=Pela Estrada
TTITLE2=Tocando em Frente
TTITLE3=Serafim e Seus Filhos
TTITLE4=Fui Prá Casa da Vizinha
TTITLE5=Como Vai Você
TTITLE6=Chalana
TTITLE7=Baile de Cowboy
TTITLE8=Romaria
TTITLE9=Escolta de Vagalumes
TTITLE10=Menino da Porteira
TTITLE11=Vida Violeira
TTITLE12=A Vida do Viajante
TTITLE13=Panela Velha
TTITLE14=Outra Vez
TTITLE15=Filho Adotivo
TTITLE16=Adeus Mariana
TTITLE17=Pinga ni Mim
TTITLE18=O Rodeio
TTITLE19=Sertão Querido
EXTD=
EXTT0=
EXTT1=
EXTT2=
EXTT3=
EXTT4=
EXTT5=
EXTT6=
EXTT7=
EXTT8=
EXTT9=
EXTT10=
EXTT11=
EXTT12=
EXTT13=
EXTT14=
EXTT15=
EXTT16=
EXTT17=
EXTT18=
EXTT19=
PLAYORDER=
